# xmcd
#
# Track frame offsets: 
#        150
#        16335
#        35666
#        57266
#
# Disc length: 1003 seconds
#
# Revision: 0
# Processed by: cddbd v1.4PL0 Copyright (c) Steve Scherf et al.
# Submitted via: ExactAudioCopy v0.90b3
#
DISCID=2c03e904
DTITLE=Peewee Bluesgang - Bombay Eyes
DYEAR=1999
DGENRE=Blues
TTITLE0=Make my day
TTITLE1=Esperanto UPX1
TTITLE2=River of blues
TTITLE3=Bombay eyes
EXTD=
EXTT0=
EXTT1=
EXTT2=
EXTT3=
PLAYORDER=
